<svg version="1.1" viewBox="0.0 0.0 949.0 301.0" fill="none" stroke="none" stroke-linecap="square" stroke-miterlimit="10" xmlns:xlink="http://www.w3.org/1999/xlink" xmlns="http://www.w3.org/2000/svg"><clipPath id="p.0"><path d="m0 0l949.0 0l0 301.0l-949.0 0l0 -301.0z" clip-rule="nonzero"/></clipPath><g clip-path="url(#p.0)"><path fill="#000000" fill-opacity="0.0" d="m0 0l949.0 0l0 301.0l-949.0 0z" fill-rule="evenodd"/><path fill="#383838" d="m37.0 14.0l58.0 28.0l85.0 112.0l78.0 70.0l143.0 54.0l139.0 0l136.0 -43.0l96.0 -82.0l86.0 -109.0l66.0 -34.0z" fill-rule="evenodd"/><path fill="#000000" fill-opacity="0.0" d="m0.5013123 11.0c85.5004 0 111.68977 67.74803 171.0008 135.49606c59.311035 67.74803 151.74371 135.49606 303.4874 135.49606" fill-rule="evenodd"/><path stroke="#383838" stroke-width="24.0" stroke-linejoin="round" stroke-linecap="butt" d="m0.5013123 11.0c85.5004 0 111.68977 67.74803 171.0008 135.49606c59.311035 67.74803 151.74371 135.49606 303.4874 135.49606" fill-rule="evenodd"/><path fill="#000000" fill-opacity="0.0" d="m949.47766 11.0c-85.50037 0 -111.68976 67.74803 -171.0008 135.49606c-59.310974 67.74803 -151.74365 135.49606 -303.48737 135.49606" fill-rule="evenodd"/><path stroke="#383838" stroke-width="24.0" stroke-linejoin="round" stroke-linecap="butt" d="m949.47766 11.0c-85.50037 0 -111.68976 67.74803 -171.0008 135.49606c-59.310974 67.74803 -151.74365 135.49606 -303.48737 135.49606" fill-rule="evenodd"/><path fill="#000000" fill-opacity="0.0" d="m0 11.251968l948.7559 -0.25196838" fill-rule="evenodd"/><path stroke="#383838" stroke-width="24.0" stroke-linejoin="round" stroke-linecap="butt" d="m0 11.251968l948.7559 -0.25196838" fill-rule="evenodd"/></g></svg>